      <svg
          className="h-full w-full mb-4"
          aria-label="Reydix logotype"
          width="40"
          height="40"
          viewBox="0 0 40 40"
          fill="none"
          xmlns="http://www.w3.org/2000/svg"
      >
        <path
          d="M29.4708 31.7741H32.0606C32.2433 31.7741 32.4123 31.6807 32.5112 31.5275L39.696 20.3631C39.8437 20.1333 39.798 19.8299 39.5894 19.6537L33.4019 14.44C33.3684 14.4124 33.3334 14.3894 33.2953 14.3695L24.0095 9.75943C23.4431 9.47752 22.9422 10.242 23.4218 10.6557L33.9211 19.6981C34.1053 19.8575 34.1616 20.121 34.0566 20.3432L28.9851 31.0004C28.8146 31.3589 29.0749 31.7741 29.4693 31.7741H29.4708Z"
          fill="#DDFF55"
        ></path>
        <path
          d="M10.3448 8.22583H7.75498C7.57228 8.22583 7.40328 8.31929 7.30432 8.4725L0.119579 19.6369C-0.0281049 19.8667 0.0175705 20.1701 0.226155 20.3463L6.41365 25.56C6.44714 25.5876 6.48216 25.6105 6.52023 25.6305L15.806 30.2405C16.3724 30.5224 16.8733 29.7579 16.3937 29.3443L5.89447 20.3018C5.71025 20.1425 5.65392 19.879 5.75897 19.6568L10.8289 8.99954C10.9995 8.64103 10.7391 8.22583 10.3448 8.22583Z"
          fill="#DDFF55"
        ></path>
        <path
          d="M31.608 10.377V7.77088C31.608 7.58702 31.5151 7.41696 31.3628 7.31738L20.2683 0.0874078C20.0399 -0.0612057 19.7385 -0.0152428 19.5634 0.194655L14.3822 6.4211C14.3548 6.4548 14.332 6.49004 14.3122 6.52835L9.73097 15.8726C9.45083 16.4425 10.2106 16.9466 10.6216 16.464L19.6075 5.89865C19.7659 5.71327 20.0277 5.65658 20.2485 5.7623L30.8391 10.8657C31.1954 11.0373 31.608 10.7753 31.608 10.3785V10.377Z"
          fill="#DDFF55"
        ></path>
        <path
          d="M8.20703 29.6231V32.2292C8.20703 32.413 8.2999 32.5831 8.45216 32.6827L19.5467 39.9127C19.7751 40.0613 20.0765 40.0153 20.2516 39.8054L25.4327 33.579C25.4602 33.5453 25.483 33.51 25.5028 33.4717L30.084 24.1275C30.3642 23.5575 29.6044 23.0535 29.1934 23.5361L20.2075 34.1014C20.0491 34.2868 19.7873 34.3435 19.5665 34.2378L8.9759 29.1344C8.61963 28.9628 8.20703 29.2248 8.20703 29.6216V29.6231Z"
          fill="#DDFF55"
        ></path>
      </svg>